inDegrees=yes
name=ik_wink_l
DataType=double
version=3
OpenSimVersion=4.5
endheader
time	pelvis_tilt	pelvis_list	pelvis_rotation	pelvis_tx	pelvis_ty	pelvis_tz	hip_flexion_r	hip_adduction_r	hip_rotation_r	knee_angle_r	knee_angle_r_beta	ankle_angle_r	subtalar_angle_r	mtp_angle_r	hip_flexion_l	hip_adduction_l	hip_rotation_l	knee_angle_l	knee_angle_l_beta	ankle_angle_l	subtalar_angle_l	mtp_angle_l	lumbar_extension	lumbar_bending	lumbar_rotation	arm_flex_r	arm_add_r	arm_rot_r	elbow_flex_r	pro_sup_r	wrist_flex_r	wrist_dev_r	arm_flex_l	arm_add_l	arm_rot_l	elbow_flex_l	pro_sup_l	wrist_flex_l	wrist_dev_l
50	2.012587887167126	45.45874361750659	24.80729519941301	0	0.9399999999999999	0	45.02982976621372	-10.02261324963884	0	59.83618421090611	1.044338426310157	-5.006930464203328	0	0	45.02982976621372	-10.02261324963884	0	59.83618421090611	1.044338426310157	-5.006930464203328	0	0	-4.878178133070721	45.72687684638533	15.94811957022597	0	-14.80834990588399	0	74.85808991167772	44.9445385352616	0	0	-10.72503257631127	-67.28454982410639	-2.077395498637941	0.001102994862219197	44.9445385352616	0	0
51	3.209934151843034	44.28463699795911	22.70508499849149	0	0.9399999999999999	0	45.02992037128875	-10.02279280526982	0	59.83652014312558	1.04434428943345	-5.006963745685412	0	0	45.02992037128875	-10.02279280526982	0	59.83652014312558	1.04434428943345	-5.006963745685412	0	0	-1.882844240821182	43.3573704706642	16.43430662486534	0	-14.80827894167618	0	74.85765833828727	44.94407217235084	0	-9.692211116731604e-36	-7.877728778108341	-63.77940786473577	-4.606241031656735	0.001058951927133016	44.94407217235084	0	-9.692211116731604e-36
52	4.156730500733839	43.68303880220475	20.83107116350073	0	0.9399999999999999	0	45.02960832389528	-10.02223964607408	0	59.83823879135235	1.044374285503691	-5.006763306593236	0	0	45.02960832389528	-10.02223964607408	0	59.83823879135235	1.044374285503691	-5.006763306593236	0	0	0.878607326768212	41.79643650029649	16.88911313122978	0	-14.80950811498195	0	74.85914469382318	44.94523727963118	0	5.623121068846005e-37	-5.13285076796175	-61.28073346825146	-7.103835715262207	0.001067440128392645	44.94523727963118	0	5.623121068846005e-37
53	4.528000381555215	43.28759586408465	18.67295705418566	0	0.9399999999999999	0	45.02918028335036	-10.02132064513036	0	59.84044029119583	1.044412708924441	-5.006409450170283	0	0	45.02918028335036	-10.02132064513036	0	59.84044029119583	1.044412708924441	-5.006409450170283	0	0	3.251682119641974	40.62215567113166	16.82720437742883	0	-14.81110211649796	0	74.86118355274587	44.94708365202563	0	0	-2.344271805030559	-59.2696629055725	-9.405477276578546	0.001055047790918392	44.94708365202563	0	0
54	4.938752205372308	43.09277475480773	18.40200055346045	0	0.9399999999999999	0	45.02908591750325	-10.02113571708848	0	59.84096653187404	1.044421893556934	-5.006338465354703	0	0	45.02908591750325	-10.02113571708848	0	59.84096653187404	1.044421893556934	-5.006338465354703	0	0	3.968632553545211	40.20034225354154	17.09229273972364	0	-14.81147432605446	0	74.86163303968597	44.94745885482251	0	0	-1.783522754463119	-58.64377845930267	-10.00246805227956	0.00106340370072664	44.94745885482251	0	0
55	5.003089163257466	42.52327743162765	18.20839003712937	0	0.9399999999999999	0	45.02913289286278	-10.02126081622659	0	59.84088267639859	1.044420430002792	-5.006382434590444	0	0	45.02913289286278	-10.02126081622659	0	59.84088267639859	1.044420430002792	-5.006382434590444	0	0	4.017744266612646	39.55332506071064	17.01098204940543	0	-14.81136185607181	0	74.86140928488773	44.94719984385139	0	-2.815055691548389e-37	-1.87501160148269	-57.93501993413469	-9.869221581454971	0.001077002640750537	44.94719984385139	0	-2.815055691548389e-37
56	4.733266867152699	42.3044037219228	17.7929019561551	0	0.9399999999999999	0	45.02913385368686	-10.02127763903696	0	59.84095884598683	1.044421759412897	-5.006386784170578	0	0	45.02913385368686	-10.02127763903696	0	59.84095884598683	1.044421759412897	-5.006386784170578	0	0	3.955456104707313	39.30885009473658	16.66375172979633	0	-14.81139173872072	0	74.86140470826233	44.94716277436415	0	-1.23615450347737e-55	-1.754178608350499	-57.63494828370612	-9.780518893841611	0.001080470388743311	44.94716277436415	0	-1.23615450347737e-55
57	4.61030906459152	41.66986084000676	17.29622436758817	0	0.9399999999999999	0	45.02909567224273	-10.02120712012448	0	59.84126255623638	1.044427060156723	-5.00635613319374	0	0	45.02909567224273	-10.02120712012448	0	59.84126255623638	1.044427060156723	-5.00635613319374	0	0	4.013335089325787	38.58756122669605	16.35003227451899	0	-14.8115751961104	0	74.86158657560438	44.94729647434121	0	-2.743602109447688e-73	-1.654967932839485	-56.81592009231946	-9.678852073129059	0.001117493564006371	44.94729647434121	0	-2.743602109447688e-73
58	4.440123013996754	41.59433691655385	17.14393593679919	0	0.9399999999999999	0	45.02909485863571	-10.02120516356624	0	59.84126620557128	1.044427123849633	-5.006355376516189	0	0	45.02909485863571	-10.02120516356624	0	59.84126620557128	1.044427123849633	-5.006355376516189	0	0	3.897619374804208	38.52406311280993	16.16470400592037	0	-14.8115779829112	0	74.86159045100868	44.9473003594878	0	-5.593037831916626e-90	-1.673026766008505	-56.75274735935612	-9.560940011334448	0.001150428647065993	44.9473003594878	0	-5.593037831916626e-90
59	3.942993275321833	41.33261934565976	17.54568790671581	0	0.9399999999999999	0	45.02879762626408	-10.02062592678606	0	59.84271143578187	1.044452347875257	-5.006145564109962	0	0	45.02879762626408	-10.02062592678606	0	59.84271143578187	1.044452347875257	-5.006145564109962	0	0	2.830997996344323	38.61548580557004	15.81237656230135	0	-14.81267078747648	0	74.86300623920809	44.94851014648775	0	-1.130387357840753e-51	-2.636125856962692	-57.21362635415537	-8.573667199705731	0.001166312898471846	44.94851014648775	0	-1.130387357840753e-51
60	3.095777875023804	41.71543059146293	18.04987041522201	0	0.9399999999999999	0	45.02852168823283	-10.02013496456518	0	59.84410833396509	1.044476728347869	-5.005971898915996	0	0	45.02852168823283	-10.02013496456518	0	59.84410833396509	1.044476728347869	-5.005971898915996	0	0	1.462797537790464	39.4677113142665	15.33238658382587	0	-14.81372166457194	0	74.86432059725097	44.94955599799908	0	5.117663515193046e-50	-3.647394778685315	-58.55180800283211	-7.495664033459785	0.001168738176274867	44.94955599799908	0	5.117663515193046e-50
61	1.574893632381015	42.16226111217488	17.9741074078912	0	0.9399999999999999	0	45.02820345688605	-10.01953330425052	0	59.84568057038621	1.044504169050037	-5.005754958939968	0	0	45.02820345688605	-10.01953330425052	0	59.84568057038621	1.044504169050037	-5.005754958939968	0	0	-0.2389284843981148	40.47040801612247	14.19469462191315	0	-14.81491071659901	0	74.86583640850208	44.9508188135723	0	-3.264335735475537e-63	-4.522024744129769	-60.0684172015993	-6.185351974509601	0.001161337887687935	44.9508188135723	0	-3.264335735475537e-63
62	-0.7800609471056523	42.66519907184111	16.59654090135871	0	0.9399999999999999	0	45.02776720368703	-10.01874820042284	0	59.84787485218955	1.044542466492222	-5.005475791493061	0	0	45.02776720368703	-10.01874820042284	0	59.84787485218955	1.044542466492222	-5.005475791493061	0	0	-1.854295779825549	41.53317714331875	12.11524717960519	0	-14.81656903511597	0	74.867914385673	44.95248533216858	0	0	-4.51539858654382	-61.5557285392299	-5.164438619724877	0.001169866821848796	44.95248533216858	0	0
63	-3.197078189615013	42.72034521708974	14.43340475609626	0	0.9399999999999999	0	45.02730157100186	-10.01793982394631	0	59.85025307564017	1.044583974321784	-5.005190937700487	0	0	45.02730157100186	-10.01793982394631	0	59.85025307564017	1.044583974321784	-5.005190937700487	0	0	-3.043653455639983	42.02942620343087	9.726771742599887	0	-14.81836466424879	0	74.87013230423453	44.95421436738045	0	4.912485791358598e-37	-3.859018932635953	-62.31453605407944	-4.587869589791326	0.0011832515676414	44.95421436738045	0	4.912485791358598e-37
64	-5.882550509442815	42.45037805987812	12.18954866287216	0	0.9399999999999999	0	45.02673299541964	-10.01693830703885	0	59.85307392270096	1.04463320739069	-5.004838305479341	0	0	45.02673299541964	-10.01693830703885	0	59.85307392270096	1.04463320739069	-5.004838305479341	0	0	-4.666003448126969	42.27695106256774	7.016040185892318	0	-14.82052862324279	0	74.87284056417171	44.95635478829364	0	2.694034605743505e-36	-3.563370505374225	-62.90566673112745	-3.564174768043599	0.001190639865623061	44.95635478829364	0	2.694034605743505e-36
65	-8.627359893012251	42.04495031260445	10.13755302939588	0	0.9399999999999999	0	45.02614576578156	-10.01592426038089	0	59.85596948883431	1.044683744553426	-5.004484299418891	0	0	45.02614576578156	-10.01592426038089	0	59.85596948883431	1.044683744553426	-5.004484299418891	0	0	-6.623024204899346	42.41395237859682	4.245310897490366	0	-14.82276976033711	0	74.87563767774995	44.9585348989035	0	0	-3.720148794829931	-63.42127539000331	-2.140154638632037	0.001196718659061326	44.9585348989035	0	0
66	-10.89269059742592	41.89491514201499	8.291237082538011	0	0.9399999999999999	0	45.02567625674256	-10.01513750057421	0	59.85829213177539	1.044724282320096	-5.004212481692557	0	0	45.02567625674256	-10.01513750057421	0	59.85829213177539	1.044724282320096	-5.004212481692557	0	0	-8.095147479130034	42.68929612039199	1.960580586260488	0	-14.82457711464256	0	74.87787406024989	44.96023939507648	0	-8.609522446541693e-36	-3.691305229022173	-64.00105640313599	-1.124465844819846	0.001204628955427893	44.96023939507648	0	-8.609522446541693e-36
